<svg xmlns="http://www.w3.org/2000/svg" width="24" height="24" viewBox="0 0 24 24" fill="none" stroke="currentColor" stroke-width="1.5" stroke-linecap="round" stroke-linejoin="round">
  <rect x="6" y="6" width="12" height="12" rx="1" />
  
  <line x1="9" y1="9" x2="15" y2="9" />
  <line x1="9" y1="15" x2="11" y2="15" />
  <line x1="13" y1="15" x2="15" y2="15" />

  <line x1="8" y1="6" x2="8" y2="3" />
  <circle cx="8" cy="2" r="1" />
  <line x1="12" y1="6" x2="12" y2="3" />
  <circle cx="12" cy="2" r="1" />
  <line x1="16" y1="6" x2="16" y2="3" />
  <circle cx="16" cy="2" r="1" />

  <line x1="8" y1="18" x2="8" y2="21" />
  <circle cx="8" cy="22" r="1" />
  <line x1="12" y1="18" x2="12" y2="21" />
  <circle cx="12" cy="22" r="1" />
  <line x1="16" y1="18" x2="16" y2="21" />
  <circle cx="16" cy="22" r="1" />

  <line x1="6" y1="8" x2="3" y2="8" />
  <circle cx="2" cy="8" r="1" />
  <line x1="6" y1="12" x2="3" y2="12" />
  <circle cx="2" cy="12" r="1" />
  <line x1="6" y1="16" x2="3" y2="16" />
  <circle cx="2" cy="16" r="1" />

  <line x1="18" y1="8" x2="21" y2="8" />
  <circle cx="22" cy="8" r="1" />
  <line x1="18" y1="12" x2="21" y2="12" />
  <circle cx="22" cy="12" r="1" />
  <line x1="18" y1="16" x2="21" y2="16" />
  <circle cx="22" cy="16" r="1" />
</svg>
