<svg xmlns="http://www.w3.org/2000/svg" viewBox="0 0 24 24" width="24" height="24">
  <defs>
    <clipPath id="circle-clip">
      <circle cx="12" cy="12" r="12" />
    </clipPath>
  </defs>

  <g clip-path="url(#circle-clip)">
    <circle cx="12" cy="12" r="12" fill="#FFFFFF" />

    <path d="M4 24 C4 18 7 15 12 15 C17 15 20 18 20 24 Z" fill="#F0F1F5"/>
    
    <polygon points="10 15, 14 15, 12 21" fill="#669CED"/>
    
    <rect x="10.5" y="12" width="3" height="4" fill="#EBBA8D"/>

    <path d="M8.5 15 C8.5 19.5 15.5 19.5 15.5 15" fill="none" stroke="#A0A6B5" stroke-width="1.2" stroke-linecap="round"/>
    <circle cx="12" cy="18.5" r="1.5" fill="#A0A6B5"/>
    <circle cx="12" cy="18.5" r="0.6" fill="#3C4353"/>

    <path d="M5.5 10 C5.5 3 9 1 12 1 C15 1 18.5 3 18.5 10 C18.5 14 16.5 15 15.5 15 C14.5 15 14 11 12 11 C10 11 9.5 15 8.5 15 C7.5 15 5.5 14 5.5 10 Z" fill="#3C4353"/>

    <circle cx="12" cy="10" r="4.5" fill="#FED0A2"/>

    <path d="M12 1.5 C16 2 18 5 18 10 C16 7 13.5 7 11.5 7.5 C10.5 7.8 9.5 8.5 8.5 10.5 C8 7.5 9.5 3 12 1.5 Z" fill="#3C4353"/>
  </g>
  
  <circle cx="12" cy="12" r="11.5" fill="none" stroke="#E2E8F0" stroke-width="1" />
</svg>
